# xmcd
#
# Track frame offsets:
#	150
#	18312
#	34635
#	51710
#	81950
#
# Disc length: 2047 seconds
#
# Revision: 2
# Processed by: cddbd v1.5.1PL0 Copyright (c) Steve Scherf et al.
# Submitted via: EasyCDDAExtractor 8.0.2.1
#
DISCID=3a07fd05
DTITLE=Ruff Ends - No More [CD Single)
DYEAR=2000
DGENRE=R&B
TTITLE0=No More
TTITLE1=No More (Jonathan Docker and Mad Mike Lewin Remix)
TTITLE2=No More (Stretch Armstrong/Rush Remix)
TTITLE3=No More (Damizza Remix No 1)
TTITLE4=No More (Video)
EXTD=
EXTT0=
EXTT1=
EXTT2=
EXTT3=
EXTT4=
PLAYORDER=
